<?xml version="1.0" encoding="iso-8859-1"?>
<!-- Generator: Adobe Illustrator 19.0.0, SVG Export Plug-In . SVG Version: 6.00 Build 0)  -->
<svg version="1.1" id="Capa_1" xmlns="http://www.w3.org/2000/svg" xmlns:xlink="http://www.w3.org/1999/xlink" x="0px" y="0px"
	 viewBox="0 0 512.002 512.002" style="enable-background:new 0 0 512.002 512.002;" xml:space="preserve">
<path style="fill:#EA473B;" d="M450.9,97.912c-1.534-72.601-1.63-56.908-0.135-79.536c0.089-1.342-0.925-2.501-2.265-2.593
	C340.391,8.388,336.295,7.536,327.917,7.536c-147.481-0.012-70.054-2.421-266.911,9.191c-1.337,0.08-2.36,1.223-2.29,2.56
	c12.687,243.411,12.224,203.703,5.742,365.93c-0.047,1.165,0.739,2.199,1.874,2.468c14.733,3.483,12.122,2.112,46.491,2.137
	c0.057,0.016,64.407-7.011,64.465-7.017c0.304,0.05,88.986,14.605,89.294,14.605c0.068,0,0.135-0.003,0.203-0.009
	c103.933-8.71,74.143-6.605,141.195-10.321l39.372,7.963c1.531,0.308,2.936-0.877,2.92-2.415
	C449.422,313.359,450.9,97.912,450.9,97.912z M291.08,92.133c0.293-0.071,0.711-0.173,1.234-0.312l28.024-6.315
	c14.355-3.596,16.477-4.473,28.76-10.248h0.001c5.672,1.968,21.221,10.572,25.163,15.513c2.605,3.27,2.434,3.999,1.615,7.5
	c-0.157,0.673-0.339,1.446-0.527,2.359c-0.013,0.061-0.023,0.123-0.031,0.183l-6.163,48.224c-6.097,0.225-6.606-0.242-8.292-1.796
	c-0.696-0.643-1.562-1.441-3.09-2.465c-9.273-6.224-39.618-28.677-49.201-36.406l-18.836-15.134l0.151-0.146
	c0.204-0.203,0.386-0.476,0.506-0.737C290.487,92.279,290.86,92.188,291.08,92.133z M334.751,334.941
	C334.2,334.39,99.263,85.328,99.089,84.984l20.526-15.746l286.83,189.925c-2.37,6.792-3.317,14.587-4.742,21.061
	c-5.039,22.862-11.518,32.865-21.652,54.585C365.547,335.387,335.748,335.275,334.751,334.941z M121.034,267.558
	c2.64-6.347,6.271-16.557,9.322-21.73c15.003,9.375,73.609,68.26,78.705,76.21c-2.823,1.047-14.949,2.85-35.096,10.899
	c-12.765,5.093-24.818,9.923-36.461,5.972c-1.162-0.392-4.257-3.018-8.845-6.98c-8.383-7.236-15.972-12.45-20.386-15.055
	C100.745,312.431,101.917,313.368,121.034,267.558z"/>
<g>
	<path style="fill:#D82B27;" d="M429.794,391.491c18.315,3.704,18.67,4.28,19.944,2.68
		C432.474,390.68,436.493,391.12,429.794,391.491z"/>
	<path style="fill:#D82B27;" d="M88.695,268.074c-1.838-94.878,0.215-43.195-10.686-252.351l-17.002,1.002
		c-1.337,0.08-2.36,1.223-2.29,2.56l9.051,173.668c1.798,92.768,2.29,52.114-3.309,192.262c-0.047,1.165,0.739,2.199,1.874,2.468
		c8.314,1.966,11.771,2.407,17.619,2.407C83.771,389.465,83.568,396.381,88.695,268.074z"/>
	<path style="fill:#D82B27;" d="M221.265,327.401c0,0,9.942-3.423,1.769-12.392c-33.358-37.206-53.679-50.684-72.995-71.875
		c-8.072-8.738-19.682,2.694-19.682,2.694c75.487,67.1,60.364,57.387,73.67,70.235c1.766,1.706,3.161,3.052,5.035,5.975
		c-0.349,0.13-1.891,0.519-4.027,1.058c-31.407,7.924-36.118,13.305-50.141,16.31c13.088,10.671,36.165-2.349,52.617-8.013
		C211.445,330.041,216.658,328.604,221.265,327.401L221.265,327.401z"/>
	<path style="fill:#D82B27;" d="M420.725,239.41c-0.001-0.001-274.217-174.876-274.218-174.876
		c-9.186-5.858-19.093-3.038-26.891,4.705l286.83,189.925c-2.37,6.792-3.317,14.587-4.742,21.061
		c-5.039,22.862-11.518,32.865-21.652,54.585c0,0,25.977,4.994,33.898-12.587c18.584-39.55,14.292-47.01,18.72-59.498
		C432.144,255.682,433.122,247.317,420.725,239.41z"/>
	<path style="fill:#D82B27;" d="M375.35,100.63c-0.013,0.061-0.023,0.123-0.031,0.183l-6.163,48.224c0,0,24.382,15.06,27.446-9.701
		c0.001-0.008,0.002-0.016,0.003-0.024l5.045-40.768c0.009-0.062,0.018-0.126,0.032-0.187c0.192-0.935,0.378-1.725,0.538-2.412
		c0.837-3.58,1.012-4.324-1.651-7.667c-2.8-3.508-15.344-12.771-24.689-18.776c-8.821-5.914-19.297,1.198-19.297,1.198
		c-2.615,2.004-4.952,3.754-7.484,4.559c6.406,3.465,22.637,12.347,25.163,15.513c2.605,3.27,2.434,3.999,1.615,7.5
		C375.719,98.943,375.539,99.716,375.35,100.63z"/>
</g>
<path d="M37.695,508.898c0.218,0.856,0.885,1.125,1.761,1.125c6.275,0,14.767,0.182,19.582,1.051
	c57.363,10.352,62.964-69.374,15.871-69.852c-40.711-0.41-39.85-0.955-39.995,0.995c-0.2,2.669,5.581,0.937,6.177,5.095
	c0.125,3.905-0.182,53.477-0.202,56.559C40.423,507.192,37.172,506.857,37.695,508.898z M91.044,492.948
	c-5.258,12.93-31.41,18.255-37.206,8.123l-0.342-54.169C96.695,444.129,97.647,476.716,91.044,492.948z"/>
<path d="M132.461,476.033c0,47.193,75.885,48.024,75.885-1.683C208.346,428.182,132.461,427.001,132.461,476.033z M194.248,474.259
	c0.293,13.807-2.774,30.582-19.033,32.15c-16.82-0.024-26.634-10.314-29.161-30.493l-0.005-0.029
	c0-20.12,6.631-29.941,20.866-30.904C181.196,444.025,194.247,458.52,194.248,474.259z"/>
<path d="M288.804,451.516c0.546,1.538,2.844,1.197,2.902-0.447c0.08-2.241,0.179-5.389,0.228-6.991
	c1.437-3.255-0.364-4.102-1.427-3.767c-3.429,1.091-0.946,0.804-53.197,0.728c-1.846-0.967-4.739-2.156-5.187-0.112l-1.854,8.439
	c-0.354,1.607,1.797,2.522,2.707,1.144c0.806-1.222,2.021-2.145,3.708-2.824c4.331-0.173,15.958-0.193,18.514-0.196l-0.266,56.8
	c-0.004,0.084-0.119,2.051-1.949,3.166c-1.283,0.782-0.734,2.771,0.784,2.771c16.921-0.077,17.028,0.307,17.384-1.229
	c0.48-2.079-2.63-1.455-2.904-4.571c-0.063-2.641-0.456-47.658-0.537-56.926l16.292,0.387
	C284.148,447.894,287.586,448.089,288.804,451.516z"/>
<path d="M374.812,493.886c5.591-2.254,8.15-1.026,8.021-3.286c-0.044-0.781-0.686-1.397-1.469-1.41
	c-4.007-0.063-12.362-0.071-14.139-0.072l-19.867-49.12c-0.047-0.138-0.101-0.278-0.158-0.413c-0.235-0.557-0.735-0.922-1.387-0.912
	c-1.448,0.012,0.641-4.022-27.471,65.116c-0.011,0.023-1.171,2.343-4,3.698c-1.431,0.687-0.935,2.84,0.644,2.843
	c0.001,0,11.812,0.018,11.812,0.018c1.717,0,2.078-2.356,0.514-2.905c-0.83-0.417-1.21-1.002-0.974-1.897
	c0.838-2.881,3.071-9.131,3.612-10.637l26.04,0.068l5.118,12.128c0.021,0.051,0.075,0.277-0.094,0.529
	c-0.871,0.95-0.207,2.485,1.08,2.505c0.106,0.001,14.853,0.21,14.853,0.21c0.879,0,1.515-0.695,1.515-1.495
	c0-1.653-1.659-1.023-3.456-3.46c-1.923-3.251-4.447-8.518-5.365-10.465C371.52,494.97,373.2,494.742,374.812,493.886z
	 M331.98,489.278l11.368-29.301l10.484,29.049L331.98,489.278z"/>
<path d="M432.328,510.166c5.043-0.029,32.42-0.187,37.487-0.133c3.673,0.266,5.489-1.869,5.57-4.256
	c1.801-10.513,2.388-11.456,0.729-11.97c-2.885-0.881-2.115,6.921-9.445,7.218c-2.311,0.091-14.613,0.578-22.341,0.52
	c10.024-7.645,19.944-18.429,22.391-21.492c25.854-36.977-13.46-47.198-32.69-36.462c-0.439,0.245-0.725,0.694-0.762,1.196
	c-0.117,1.6,0.192,4.836,0.919,9.612c0.103,0.677,0.652,1.197,1.333,1.263c0.676,0.062,1.32-0.34,1.551-0.982
	c5.62-15.668,23.922-12.177,24.57,4.66c0.893,23.156-29.789,45.351-32.214,48.383c-0.442,0.554-0.426,1.327-0.007,1.857
	C429.421,511.458,431.798,511.698,432.328,510.166z"/>
<path d="M328.147,339.007c0.532,0.516,0.969,0.941,1.474,1.367c1.97,1.862,4.646,2.417,7.405,2.214c0,0,25.499,0.399,43.324-0.31
	c2.795-0.111,5.294-1.773,6.476-4.307c10.843-23.242,18.043-34.063,23.333-61.986c2.201-11.611,2.506-11.955,3.344-14.357
	c1.126-3.227-0.081-6.806-2.929-8.694l-124.149-82.207c-3.441-2.278-8.078-1.336-10.357,2.105
	c-2.279,3.442-1.336,8.078,2.105,10.357l119.525,79.145c-1.31,5.505-2.538,12.866-3.29,16.283
	c-4.514,20.48-10.03,29.682-19.172,48.888c-18.243,0.573-34.819,0.015-37.395,0.079c-0.997-0.981-99.972-106.652-104.819-111.23
	c-6.963-6.775-13.474-13.882-20.406-21.449c-17.418-19.014-3.173-3.764-102.41-109.027l9.732-7.465l129.155,85.521
	c3.44,2.277,8.078,1.336,10.357-2.105c2.279-3.442,1.336-8.078-2.105-10.357l-133.6-88.465c-2.658-1.761-6.143-1.639-8.674,0.302
	L94.543,79.055c-2.843,2.18-3.739,6.072-2.133,9.277C93.153,89.815,327.208,338.1,328.147,339.007z"/>
<path d="M445.883,402.37c6.203,1.24,11.931-3.536,11.865-9.823c-0.51-47.455-0.433-106.788,0.206-158.717c0-0.036,0-0.071,0-0.107
	c-0.192-101.614-0.214-90.085-0.053-97.012l0.016-0.702l-7.471-0.17l-7.473-0.107l-0.015,0.628c-0.056,2.374-0.1,4.269-0.124,5.562
	c-0.001,0.051-0.001,0.102-0.001,0.152c0.304,160.45-0.945,154.831-0.096,244.41l-33.275-6.731
	c-0.624-0.126-1.261-0.172-1.895-0.136c-71.132,3.942-30.631,1.052-140.785,10.283c-94.289-15.456-88.818-14.69-90.303-14.527
	l-63.927,6.973c-31.398-0.023-30.716,1.048-40.459-1.021c6.264-156.801,7.393-107.11-5.654-357.434l150.742-8.892
	c137.378-0.018,89.505-1.428,225.795,7.896c-1.188,17.963-1.123,0.7,0.442,74.721c-0.044,0.363-0.061,0.728-0.051,1.095l0.018,0.681
	c0.014,0.525,0.026,1.09,0.035,1.688c0.064,4.127,3.49,7.402,7.588,7.356c4.127-0.064,7.42-3.462,7.356-7.588
	c-0.013-0.821-0.028-1.508-0.04-1.907c0.039-0.394,0.055-0.79,0.046-1.187c-1.526-72.221-1.618-56.671-0.149-78.887
	c0.359-5.44-3.774-10.169-9.213-10.54l-72.794-4.98c-49.289-3.984-26.873-3.311-159.179-3.294c-0.459,0-156.016,9.185-156.476,9.213
	c-5.416,0.323-9.591,4.994-9.307,10.408c12.719,244.021,12.2,203.511,5.738,365.241c-0.189,4.728,3.015,8.95,7.622,10.04
	c15.977,3.778,14.604,2.313,47.876,2.338c0.936,0.047-3.182,0.442,64.596-6.951c92.348,15.139,88.567,14.657,90.325,14.505
	c104.15-8.729,74.292-6.61,140.027-10.253L445.883,402.37z"/>
<path d="M176.005,276.407c-49.421-45.826-47.326-48.601-59.574-17.457c-18.321,46.596-27.671,55.082-11.954,64.361
	c30.394,17.923,25.021,35.413,72.263,16.566c10.861-4.338,13.657-5.38,30.125-9.534l0.039-0.011
	c3.197-0.807,4.062-1.028,4.759-1.287c4.473-1.659,6.26-7.032,3.692-11.039C211.59,312.133,184.917,284.894,176.005,276.407z
	 M140.438,332.004c-3.627-2.541-15.161-13.79-28.744-21.788c0.982-3.634,4.457-11.732,7.329-18.426
	c6.199-14.424,13.744-33.469,14.159-34.466c1.01,0.844,34.624,30.238,62.157,60.552C168.403,325.03,153.998,336.172,140.438,332.004
	z"/>
<path d="M303.883,114.189c9.67,7.8,40.343,30.495,49.731,36.796c1.048,0.702,1.574,1.188,2.188,1.755
	c3.285,3.026,5.919,3.821,10.988,3.821c0.813,0,1.69-0.02,2.641-0.056c3.654-0.135,6.674-2.894,7.137-6.521l6.136-48.019
	c0.16-0.763,0.313-1.417,0.449-1.995c1.279-5.468,1.139-8.603-3.05-13.862c-5.405-6.775-22.702-15.883-28.557-17.913
	c-1.843-0.64-3.863-0.533-5.629,0.298c-11.867,5.579-13.652,6.317-27.312,9.741l-27.936,6.295c-0.095,0.021-0.188,0.044-0.282,0.069
	c-0.453,0.121-0.816,0.209-1.117,0.282c-0.763,0.189-2.184,0.541-3.56,1.648c-0.64,0.514-1.188,1.129-1.625,1.817
	c-1.247,1.442-1.903,3.314-1.814,5.234c0.1,2.141,1.113,4.138,2.784,5.481L303.883,114.189z M321.982,92.795
	c0.058-0.013,0.116-0.027,0.173-0.041c13.531-3.391,16.756-4.502,27.155-9.343c6.388,2.916,16.927,9.282,19.108,12.016
	c0.135,0.169,0.249,0.316,0.346,0.442c-0.053,0.23-0.109,0.473-0.161,0.696c-0.171,0.728-0.367,1.567-0.553,2.475
	c-0.055,0.25-0.099,0.508-0.142,0.826l-5.03,39.358c-0.292-0.21-0.603-0.427-0.938-0.652c-9.176-6.16-39.199-28.376-48.683-36.027
	l-7.567-6.08L321.982,92.795z"/>
<g>
</g>
<g>
</g>
<g>
</g>
<g>
</g>
<g>
</g>
<g>
</g>
<g>
</g>
<g>
</g>
<g>
</g>
<g>
</g>
<g>
</g>
<g>
</g>
<g>
</g>
<g>
</g>
<g>
</g>
</svg>
